<svg width="512" height="512" viewBox="0 0 512 512" fill="none" xmlns="http://www.w3.org/2000/svg">
<path d="M352.002 306C342.511 325.433 326.671 341.773 306 351.874L312.752 373.968C340.31 360.505 361.294 338.588 373.939 312.687L352.002 306Z" fill="white"/>
<path d="M159.957 306C169.457 325.442 185.31 341.79 206 351.896L199.242 374C171.66 360.531 150.656 338.603 138 312.69L159.957 306Z" fill="white"/>
<path d="M306 159.938C325.433 169.429 341.773 185.268 351.874 205.939L373.968 199.188C360.505 171.629 338.588 150.645 312.687 138L306 159.938Z" fill="white"/>
<path d="M206 159.957C186.558 169.457 170.21 185.31 160.104 206L138 199.242C151.469 171.66 173.397 150.656 199.31 138L206 159.957Z" fill="white"/>
</svg>
